<?xml version="1.0" encoding="utf-8" standalone="no"?>
<!DOCTYPE svg PUBLIC "-//W3C//DTD SVG 1.1//EN"
  "http://www.w3.org/Graphics/SVG/1.1/DTD/svg11.dtd">
<svg xmlns:xlink="http://www.w3.org/1999/xlink" width="432pt" height="288pt" viewBox="0 0 432 288" xmlns="http://www.w3.org/2000/svg" version="1.1">
 <metadata>
  <rdf:RDF xmlns:dc="http://purl.org/dc/elements/1.1/" xmlns:cc="http://creativecommons.org/ns#" xmlns:rdf="http://www.w3.org/1999/02/22-rdf-syntax-ns#">
   <cc:Work>
    <dc:type rdf:resource="http://purl.org/dc/dcmitype/StillImage"/>
    <dc:date>2023-03-01T12:20:15.226262</dc:date>
    <dc:format>image/svg+xml</dc:format>
    <dc:creator>
     <cc:Agent>
      <dc:title>Matplotlib v3.5.1, https://matplotlib.org/</dc:title>
     </cc:Agent>
    </dc:creator>
   </cc:Work>
  </rdf:RDF>
 </metadata>
 <defs>
  <style type="text/css">*{stroke-linejoin: round; stroke-linecap: butt}</style>
 </defs>
 <g id="figure_1">
  <g id="patch_1">
   <path d="M 0 288
L 432 288
L 432 0
L 0 0
z
" style="fill: #ffffff"/>
  </g>
  <g id="axes_1">
   <g id="patch_2">
    <path d="M 194.97244 78.29634
C 174.970549 64.961745 150.464625 60.113856 126.892169 64.828347
C 103.319714 69.542838 82.563434 83.443168 69.22884 103.44506
L 144.675 153.7425
L 194.97244 78.29634
z
" clip-path="url(#pcaf0a281af)" style="fill: #348abd; opacity: 0.5"/>
   </g>
   <g id="patch_3">
    <path d="M 388.8 153.7425
C 388.8 129.703218 379.240247 106.623932 362.241907 89.625593
C 345.243568 72.627253 322.164282 63.0675 298.125 63.0675
L 298.125 153.7425
L 388.8 153.7425
z
" clip-path="url(#pcaf0a281af)" style="fill: #348abd; opacity: 0.5"/>
   </g>
   <g id="patch_4">
    <path d="M 144.675 223.4925
C 163.172916 223.4925 180.915696 216.1432 193.995698 203.063198
C 207.0757 189.983196 214.425 172.240416 214.425 153.7425
C 214.425 135.244584 207.0757 117.501804 193.995698 104.421802
C 180.915696 91.3418 163.172916 83.9925 144.675 83.9925
C 126.177084 83.9925 108.434304 91.3418 95.354302 104.421802
C 82.2743 117.501804 74.925 135.244584 74.925 153.7425
C 74.925 172.240416 82.2743 189.983196 95.354302 203.063198
C 108.434304 216.1432 126.177084 223.4925 144.675 223.4925
z
" clip-path="url(#pcaf0a281af)" style="fill: #808080; stroke: #000000; stroke-width: 0.5; stroke-linejoin: miter"/>
   </g>
   <g id="patch_5">
    <path d="M 298.125 223.4925
C 316.622916 223.4925 334.365696 216.1432 347.445698 203.063198
C 360.5257 189.983196 367.875 172.240416 367.875 153.7425
C 367.875 135.244584 360.5257 117.501804 347.445698 104.421802
C 334.365696 91.3418 316.622916 83.9925 298.125 83.9925
C 279.627084 83.9925 261.884304 91.3418 248.804302 104.421802
C 235.7243 117.501804 228.375 135.244584 228.375 153.7425
C 228.375 172.240416 235.7243 189.983196 248.804302 203.063198
C 261.884304 216.1432 279.627084 223.4925 298.125 223.4925
z
" clip-path="url(#pcaf0a281af)" style="fill: #808080; stroke: #000000; stroke-width: 0.5; stroke-linejoin: miter"/>
   </g>
   <g id="patch_6">
    <path d="M 179.55 153.7425
C 179.55 149.162757 178.64789 144.627546 176.895299 140.396415
C 175.142707 136.165284 172.573716 132.320518 169.335349 129.082151
C 166.096982 125.843784 162.252216 123.274793 158.021085 121.522201
C 153.789954 119.76961 149.254743 118.8675 144.675 118.8675
C 140.095257 118.8675 135.560046 119.76961 131.328915 121.522201
C 127.097784 123.274793 123.253018 125.843784 120.014651 129.082151
C 116.776284 132.320518 114.207293 136.165284 112.454701 140.396415
C 110.70211 144.627546 109.8 149.162757 109.8 153.7425
C 109.8 158.322243 110.70211 162.857454 112.454701 167.088585
C 114.207293 171.319716 116.776284 175.164482 120.014651 178.402849
C 123.253018 181.641216 127.097784 184.210207 131.328915 185.962799
C 135.560046 187.71539 140.095257 188.6175 144.675 188.6175
C 149.254743 188.6175 153.789954 187.71539 158.021085 185.962799
C 162.252216 184.210207 166.096982 181.641216 169.335349 178.402849
C 172.573716 175.164482 175.142707 171.319716 176.895299 167.088585
C 178.64789 162.857454 179.55 158.322243 179.55 153.7425
M 177.4575 153.7425
C 177.4575 158.047458 176.609517 162.310557 174.962081 166.28782
C 173.314644 170.265083 170.899793 173.879163 167.855728 176.923228
C 164.811663 179.967293 161.197583 182.382144 157.22032 184.029581
C 153.243057 185.677017 148.979958 186.525 144.675 186.525
C 140.370042 186.525 136.106943 185.677017 132.12968 184.029581
C 128.152417 182.382144 124.538337 179.967293 121.494272 176.923228
C 118.450207 173.879163 116.035356 170.265083 114.387919 166.28782
C 112.740483 162.310557 111.8925 158.047458 111.8925 153.7425
C 111.8925 149.437542 112.740483 145.174443 114.387919 141.19718
C 116.035356 137.219917 118.450207 133.605837 121.494272 130.561772
C 124.538337 127.517707 128.152417 125.102856 132.12968 123.455419
C 136.106943 121.807983 140.370042 120.96 144.675 120.96
C 148.979958 120.96 153.243057 121.807983 157.22032 123.455419
C 161.197583 125.102856 164.811663 127.517707 167.855728 130.561772
C 170.899793 133.605837 173.314644 137.219917 174.962081 141.19718
C 176.609517 145.174443 177.4575 149.437542 177.4575 153.7425
M 179.55 153.7425
z
" clip-path="url(#pcaf0a281af)" style="stroke: #000000; stroke-width: 0.5; stroke-linejoin: miter"/>
   </g>
   <g id="patch_7">
    <path d="M 86.639492 115.052161
C 82.197136 121.715696 78.935426 129.094819 76.997629 136.865415
C 75.059832 144.636011 74.474741 152.682618 75.268055 160.6518
C 76.061368 168.620983 78.221299 176.394329 81.652976 183.630406
C 85.084652 190.866484 89.737084 197.457773 95.405919 203.114761
C 101.074755 208.77175 107.675763 213.410382 114.919003 216.826913
C 122.162244 220.243444 129.940092 222.387108 137.910917 223.163748
C 145.881741 223.940388 153.927107 223.338464 161.693632 221.384415
C 169.460156 219.430366 176.83244 216.153226 183.486666 211.696939
C 190.140893 207.240653 195.978188 201.671434 200.742157 195.233902
C 205.506126 188.79637 209.125983 181.58618 211.442731 173.920027
C 213.759479 166.253874 214.738694 158.245669 214.337365 150.24716
C 213.936036 142.24865 212.160127 134.378685 209.087642 126.982939
C 206.015156 119.587194 201.691748 112.77556 196.307316 106.847229
C 190.922884 100.918898 184.557434 95.961957 177.49056 92.194132
C 170.423685 88.426308 162.76039 85.903585 154.837275 84.736771
C 146.914159 83.569956 138.84895 83.776388 130.9959 85.346998
L 144.675 153.7425
L 86.639492 115.052161
z
" clip-path="url(#pcaf0a281af)" style="fill: #808080; stroke: #000000; stroke-width: 0.5; stroke-linejoin: miter"/>
   </g>
   <g id="patch_8">
    <path d="M 126.892169 64.828347
L 131.816646 73.446181
L 129.764781 73.856554
L 145.700933 153.537313
L 143.649067 153.947687
L 127.712915 74.266927
L 125.66105 74.6773
z
" clip-path="url(#pcaf0a281af)" style="stroke: #000000; stroke-width: 0.5; stroke-linejoin: miter"/>
   </g>
   <g id="patch_9">
    <path d="M 362.241907 89.625593
L 357.803045 98.503318
L 356.323424 97.023697
L 298.86481 154.48231
L 297.38519 153.00269
L 354.843803 95.544076
L 353.364182 94.064455
z
" clip-path="url(#pcaf0a281af)" style="stroke: #000000; stroke-width: 0.5; stroke-linejoin: miter"/>
   </g>
   <g id="patch_10">
    <path d="M 298.125 153.7425
L 288.70875 156.88125
L 288.70875 154.78875
L 144.675 154.78875
L 144.675 152.69625
L 288.70875 152.69625
L 288.70875 150.60375
z
" clip-path="url(#pcaf0a281af)" style="stroke: #000000; stroke-width: 0.5; stroke-linejoin: miter"/>
   </g>
   <g id="patch_11">
    <path d="M 86.639492 115.052161
L 96.215351 117.663759
L 95.054641 119.404824
L 145.255355 152.871967
L 144.094645 154.613033
L 93.89393 121.14589
L 92.73322 122.886955
z
" clip-path="url(#pcaf0a281af)" style="stroke: #000000; stroke-width: 0.5; stroke-linejoin: miter"/>
   </g>
   <g id="text_1">
    <!-- $\vec{r}_{ij}$ -->
    <g transform="translate(245.8125 143.28)scale(0.16 -0.16)">
     <defs>
      <path id="DejaVuSans-20d7" d="M -3009 4066
L -3009 4378
L -694 4378
L -1106 4863
L -713 4863
L -166 4222
L -713 3581
L -1106 3581
L -694 4066
L -3009 4066
z
" transform="scale(0.015625)"/>
      <path id="DejaVuSans-Oblique-72" d="M 2853 2969
Q 2766 3016 2653 3041
Q 2541 3066 2413 3066
Q 1953 3066 1609 2717
Q 1266 2369 1153 1784
L 800 0
L 225 0
L 909 3500
L 1484 3500
L 1375 2956
Q 1603 3259 1920 3421
Q 2238 3584 2597 3584
Q 2691 3584 2781 3573
Q 2872 3563 2963 3538
L 2853 2969
z
" transform="scale(0.015625)"/>
      <path id="DejaVuSans-Oblique-69" d="M 1172 4863
L 1747 4863
L 1606 4134
L 1031 4134
L 1172 4863
z
M 909 3500
L 1484 3500
L 800 0
L 225 0
L 909 3500
z
" transform="scale(0.015625)"/>
      <path id="DejaVuSans-Oblique-6a" d="M 928 3500
L 1503 3500
L 813 -63
L 809 -78
Q 694 -675 544 -897
Q 403 -1106 132 -1218
Q -138 -1331 -506 -1331
L -722 -1331
L -628 -844
L -481 -844
Q -144 -844 -1 -703
Q 141 -563 238 -63
L 928 3500
z
M 1197 4863
L 1772 4863
L 1631 4134
L 1056 4134
L 1197 4863
z
" transform="scale(0.015625)"/>
     </defs>
     <use xlink:href="#DejaVuSans-20d7" transform="translate(50.293945 13.015625)"/>
     <use xlink:href="#DejaVuSans-Oblique-72" transform="translate(0 0.46875)"/>
     <use xlink:href="#DejaVuSans-Oblique-69" transform="translate(42.070312 -15.9375)scale(0.7)"/>
     <use xlink:href="#DejaVuSans-Oblique-6a" transform="translate(61.518555 -15.9375)scale(0.7)"/>
    </g>
   </g>
   <g id="text_2">
    <!-- $i$ -->
    <g transform="translate(142.435 199.72875)scale(0.16 -0.16)">
     <use xlink:href="#DejaVuSans-Oblique-69" transform="translate(0 0.015625)"/>
    </g>
   </g>
   <g id="text_3">
    <!-- $j$ -->
    <g transform="translate(295.885 199.9925)scale(0.16 -0.16)">
     <use xlink:href="#DejaVuSans-Oblique-6a" transform="translate(0 0.015625)"/>
    </g>
   </g>
   <g id="text_4">
    <!-- $\vec{e}_i$ -->
    <g transform="translate(151.825 117.1925)scale(0.16 -0.16)">
     <defs>
      <path id="DejaVuSans-Oblique-65" d="M 3078 2063
Q 3088 2113 3092 2166
Q 3097 2219 3097 2272
Q 3097 2653 2873 2875
Q 2650 3097 2266 3097
Q 1838 3097 1509 2826
Q 1181 2556 1013 2059
L 3078 2063
z
M 3578 1613
L 903 1613
Q 884 1494 878 1425
Q 872 1356 872 1306
Q 872 872 1139 634
Q 1406 397 1894 397
Q 2269 397 2603 481
Q 2938 566 3225 728
L 3116 159
Q 2806 34 2476 -28
Q 2147 -91 1806 -91
Q 1078 -91 686 257
Q 294 606 294 1247
Q 294 1794 489 2264
Q 684 2734 1063 3103
Q 1306 3334 1642 3459
Q 1978 3584 2356 3584
Q 2950 3584 3301 3228
Q 3653 2872 3653 2272
Q 3653 2128 3634 1964
Q 3616 1800 3578 1613
z
" transform="scale(0.015625)"/>
     </defs>
     <use xlink:href="#DejaVuSans-20d7" transform="translate(63.396484 13.015625)"/>
     <use xlink:href="#DejaVuSans-Oblique-65" transform="translate(0 0.46875)"/>
     <use xlink:href="#DejaVuSans-Oblique-69" transform="translate(62.480469 -15.9375)scale(0.7)"/>
    </g>
   </g>
   <g id="text_5">
    <!-- $\vec{e}_j$ -->
    <g transform="translate(305.275 116.5325)scale(0.16 -0.16)">
     <use xlink:href="#DejaVuSans-20d7" transform="translate(63.396484 13.015625)"/>
     <use xlink:href="#DejaVuSans-Oblique-65" transform="translate(0 0.46875)"/>
     <use xlink:href="#DejaVuSans-Oblique-6a" transform="translate(62.480469 -15.9375)scale(0.7)"/>
    </g>
   </g>
   <g id="text_6">
    <!-- $\delta$ -->
    <g transform="translate(111.815 116.02875)scale(0.16 -0.16)">
     <defs>
      <path id="DejaVuSans-Oblique-3b4" d="M 3472 4053
Q 3197 4272 2450 4272
Q 1659 4272 1588 3906
Q 1531 3619 2328 3469
Q 2953 3353 3253 3003
Q 3616 2581 3447 1716
Q 3284 888 2763 400
Q 2238 -91 1488 -91
Q 741 -91 406 400
Q 72 888 241 1747
Q 363 2384 891 2900
Q 1097 3100 1353 3213
Q 913 3459 1000 3900
Q 1166 4750 2544 4750
Q 3234 4750 3566 4531
L 3472 4053
z
M 1753 3056
Q 1525 2966 1306 2738
Q 969 2384 847 1747
Q 722 1113 919 756
Q 1119 397 1584 397
Q 2044 397 2381 759
Q 2722 1122 2838 1716
Q 2956 2338 2731 2638
Q 2491 2959 2103 2994
Q 1906 3013 1753 3056
z
" transform="scale(0.015625)"/>
     </defs>
     <use xlink:href="#DejaVuSans-Oblique-3b4" transform="translate(0 0.78125)"/>
    </g>
   </g>
  </g>
 </g>
 <defs>
  <clipPath id="pcaf0a281af">
   <rect x="54" y="56.0925" width="334.8" height="174.375"/>
  </clipPath>
 </defs>
</svg>
